<svg width="131" height="131" viewBox="0 0 131 131" fill="none" xmlns="http://www.w3.org/2000/svg">
<path d="M65.5 0C29.3256 0 0 29.3256 0 65.5C0 101.676 29.3256 131 65.5 131C101.676 131 131 101.676 131 65.5C131 29.3256 101.676 0 65.5 0ZM65.5 122.941C33.8983 122.941 8.1875 97.1017 8.1875 65.4997C8.1875 33.898 33.8983 8.18724 65.5 8.18724C97.1017 8.18724 122.812 33.8982 122.812 65.4997C122.812 97.1013 97.1017 122.941 65.5 122.941ZM91.6406 41.5331L53.2104 80.2047L35.9041 62.8984C34.3055 61.2998 31.7142 61.2998 30.1135 62.8984C28.5149 64.497 28.5149 67.0884 30.1135 68.687L50.3755 88.951C51.9741 90.5476 54.5655 90.5476 56.1661 88.951C56.3503 88.7668 56.5081 88.5661 56.6514 88.3575L97.4333 47.3236C99.0299 45.725 99.0299 43.1337 97.4333 41.5331C95.8326 39.9345 93.2413 39.9345 91.6406 41.5331Z" fill="#4CAF50"/>
</svg>
