<svg width="59" height="46" viewBox="0 0 59 46" fill="none" xmlns="http://www.w3.org/2000/svg">
<g clip-path="url(#clip0_257_379)">
<path d="M10.7258 45.7714V42.7268C10.7258 41.5595 10.0174 40.7985 8.80305 40.7985C8.19599 40.7985 7.53823 41.0015 7.08283 41.6612C6.72883 41.1029 6.22295 40.7985 5.46402 40.7985C4.95791 40.7985 4.45226 40.9506 4.04732 41.5089V40.9H2.98486V45.7714H4.04732V43.0819C4.04732 42.2194 4.50273 41.8133 5.21119 41.8133C5.91919 41.8133 6.27365 42.2701 6.27365 43.0819V45.7714H7.33611V43.0819C7.33611 42.2194 7.84176 41.8133 8.49952 41.8133C9.20798 41.8133 9.56198 42.2701 9.56198 43.0819V45.7714H10.7258ZM26.4602 40.9H24.7402V39.4285H23.6777V40.9H22.7164V41.8639H23.6775V44.0969C23.6775 45.2134 24.1329 45.8729 25.3472 45.8729C25.8027 45.8729 26.3083 45.7208 26.6628 45.5178L26.359 44.6043C26.0555 44.8072 25.7015 44.8581 25.4484 44.8581C24.9425 44.8581 24.7402 44.5536 24.7402 44.046V41.8639H26.4602V40.9ZM35.466 40.7983C34.8589 40.7983 34.4542 41.103 34.2012 41.5089V40.9H33.1387V45.7714H34.2012V43.0313C34.2012 42.2194 34.5552 41.7627 35.2129 41.7627C35.4153 41.7627 35.6683 41.8135 35.8707 41.8641L36.1742 40.8494C35.9719 40.7985 35.6683 40.7985 35.466 40.7985M21.8563 41.3061C21.3502 40.9509 20.642 40.7987 19.8831 40.7987C18.669 40.7987 17.8595 41.4076 17.8595 42.3718C17.8595 43.1838 18.4666 43.6403 19.5291 43.7927L20.0349 43.8435C20.5915 43.9448 20.8951 44.0971 20.8951 44.3509C20.8951 44.706 20.4903 44.9598 19.7819 44.9598C19.0734 44.9598 18.5171 44.706 18.1628 44.4524L17.657 45.2642C18.2135 45.6701 18.9725 45.8731 19.7312 45.8731C21.1479 45.8731 21.9575 45.2136 21.9575 44.3001C21.9575 43.4374 21.2998 42.9806 20.2878 42.8285L19.7819 42.7777C19.3265 42.7268 18.9725 42.6256 18.9725 42.3211C18.9725 41.9659 19.3265 41.7629 19.8831 41.7629C20.4903 41.7629 21.0974 42.0165 21.4009 42.1688L21.8563 41.3061ZM50.0876 40.7987C49.4803 40.7987 49.0756 41.1032 48.8226 41.5091V40.9002H47.7601V45.7716H48.8226V43.0315C48.8226 42.2197 49.1768 41.7629 49.8343 41.7629C50.0369 41.7629 50.29 41.8138 50.4923 41.8644L50.7958 40.8496C50.5935 40.7987 50.29 40.7987 50.0876 40.7987ZM36.5284 43.3359C36.5284 44.8075 37.5402 45.8731 39.1088 45.8731C39.817 45.8731 40.3229 45.721 40.8288 45.3151L40.3229 44.4524C39.9182 44.7568 39.5135 44.9089 39.0581 44.9089C38.198 44.9089 37.5909 44.3001 37.5909 43.3359C37.5909 42.4226 38.198 41.8135 39.0581 41.7629C39.5135 41.7629 39.9182 41.915 40.3229 42.2197L40.8288 41.357C40.3229 40.9509 39.817 40.7987 39.1088 40.7987C37.5402 40.7987 36.5284 41.8644 36.5284 43.3359ZM46.3436 43.3359V40.9002H45.2812V41.5091C44.927 41.0526 44.4211 40.7987 43.7633 40.7987C42.3973 40.7987 41.3349 41.8644 41.3349 43.3359C41.3349 44.8075 42.3973 45.8731 43.7633 45.8731C44.4715 45.8731 44.9777 45.6195 45.2812 45.1627V45.7716H46.3436V43.3359ZM42.4478 43.3359C42.4478 42.4732 43.0044 41.7629 43.915 41.7629C44.7751 41.7629 45.3824 42.4226 45.3824 43.3359C45.3824 44.1986 44.7751 44.9089 43.915 44.9089C43.0044 44.8581 42.4478 44.1986 42.4478 43.3359ZM29.749 40.7987C28.3323 40.7987 27.3203 41.8135 27.3203 43.3359C27.3203 44.8583 28.332 45.8731 29.7994 45.8731C30.5077 45.8731 31.2161 45.6701 31.7727 45.2136L31.2666 44.4524C30.8619 44.7568 30.356 44.9598 29.8501 44.9598C29.1924 44.9598 28.5346 44.6554 28.3828 43.7924H31.9751V43.3868C32.0258 41.8135 31.1152 40.7987 29.749 40.7987ZM29.7487 41.712C30.4063 41.712 30.8619 42.1182 30.9629 42.8794H28.4332C28.5344 42.2197 28.9898 41.712 29.7487 41.712ZM56.1079 43.3359V38.9719H55.0454V41.5091C54.6912 41.0526 54.1853 40.7987 53.5276 40.7987C52.1616 40.7987 51.0991 41.8644 51.0991 43.3359C51.0991 44.8075 52.1616 45.8731 53.5276 45.8731C54.236 45.8731 54.7419 45.6195 55.0454 45.1627V45.7716H56.1079V43.3359ZM52.2123 43.3359C52.2123 42.4732 52.7686 41.7629 53.6795 41.7629C54.5396 41.7629 55.1466 42.4226 55.1466 43.3359C55.1466 44.1986 54.5396 44.9089 53.6795 44.9089C52.7686 44.8581 52.2123 44.1986 52.2123 43.3359ZM16.6954 43.3359V40.9002H15.633V41.5091C15.2788 41.0526 14.7729 40.7987 14.1151 40.7987C12.7491 40.7987 11.6867 41.8644 11.6867 43.3359C11.6867 44.8075 12.7491 45.8731 14.1151 45.8731C14.8236 45.8731 15.3295 45.6195 15.633 45.1627V45.7716H16.6954V43.3359ZM12.7491 43.3359C12.7491 42.4732 13.3057 41.7629 14.2163 41.7629C15.0764 41.7629 15.6837 42.4226 15.6837 43.3359C15.6837 44.1986 15.0764 44.9089 14.2163 44.9089C13.3057 44.8581 12.7491 44.1986 12.7491 43.3359Z" fill="white"/>
<path d="M21.5024 3.90723H37.4394V32.6286H21.5024V3.90723Z" fill="#FF5F00"/>
<path d="M22.5143 18.268C22.5143 12.4325 25.2462 7.25644 29.4454 3.90723C26.3594 1.47154 22.4638 0 18.2139 0C8.14546 0 0 8.16974 0 18.268C0 28.3663 8.14546 36.536 18.2137 36.536C22.4636 36.536 26.3592 35.0645 29.4454 32.6286C25.2462 29.3302 22.5143 24.1035 22.5143 18.268Z" fill="#EB001B"/>
<path d="M58.9415 18.268C58.9415 28.3661 50.796 36.536 40.7278 36.536C36.4779 36.536 32.5823 35.0645 29.4961 32.6286C33.7459 29.2796 36.4274 24.1035 36.4274 18.268C36.4274 12.4325 33.6952 7.25644 29.4961 3.90723C32.5821 1.47154 36.4779 0 40.7278 0C50.796 0 58.9415 8.22059 58.9415 18.268Z" fill="#F79E1B"/>
</g>
<defs>
<clipPath id="clip0_257_379">
<rect width="59" height="46" fill="white"/>
</clipPath>
</defs>
</svg>
