<svg width="142" height="46" viewBox="0 0 142 46" fill="none" xmlns="http://www.w3.org/2000/svg">
<g clip-path="url(#clip0_257_386)">
<path d="M73.2003 14.5216C73.1195 20.9296 78.8745 24.5053 83.2097 26.6315C87.6637 28.8128 89.1598 30.2117 89.1421 32.1625C89.109 35.1479 85.5893 36.4655 82.2958 36.5167C76.5496 36.6063 73.2086 34.9553 70.5525 33.7067L68.4825 43.455C71.1474 44.6909 76.0819 45.7687 81.1988 45.816C93.2103 45.816 101.068 39.8487 101.111 30.5967C101.158 18.8547 84.9734 18.2047 85.084 12.9564C85.1221 11.3649 86.6309 9.66669 89.9372 9.23489C91.5737 9.01676 96.0913 8.84983 101.213 11.2236L103.224 1.79191C100.469 0.782524 96.929 -0.184017 92.5214 -0.184017C81.216 -0.184017 73.2644 5.86451 73.2003 14.5216ZM122.54 0.628387C120.347 0.628387 118.499 1.91599 117.674 3.89192L100.516 45.1232H112.519L114.907 38.4798H129.574L130.96 45.1232H141.538L132.307 0.628387H122.54ZM124.219 12.6481L127.683 29.3564H118.197L124.219 12.6481ZM58.6478 0.628944L49.1868 45.1227H60.6244L70.0809 0.627831L58.6478 0.628944ZM41.7279 0.628944L29.8232 30.9133L25.0075 5.16284C24.4425 2.28826 22.211 0.628387 19.733 0.628387H0.272572L0 1.92044C3.99514 2.79295 8.53433 4.20019 11.2844 5.70592C12.9674 6.62572 13.4473 7.42979 14.0001 9.61549L23.1211 45.1232H35.2077L53.7382 0.628387L41.7279 0.628944Z" fill="url(#paint0_linear_257_386)"/>
</g>
<defs>
<linearGradient id="paint0_linear_257_386" x1="6507.09" y1="138.092" x2="6641.1" y2="-4586.13" gradientUnits="userSpaceOnUse">
<stop stop-color="#3134BF"/>
<stop offset="0.9999" stop-color="#243F90"/>
<stop offset="1" stop-color="#254AA5"/>
</linearGradient>
<clipPath id="clip0_257_386">
<rect width="141.538" height="46" fill="white"/>
</clipPath>
</defs>
</svg>
