<svg width="47" height="47" viewBox="0 0 47 47" fill="none" xmlns="http://www.w3.org/2000/svg">
<path fill-rule="evenodd" clip-rule="evenodd" d="M23.4276 0C10.4838 0 0 10.749 0 24.0201C0 34.649 6.70614 43.6266 16.0186 46.8092C17.19 47.0194 17.6292 46.2988 17.6292 45.6683C17.6292 45.0978 17.6 43.2062 17.6 41.1945C11.7138 42.3055 10.191 39.7233 9.72244 38.3722C9.45888 37.6816 8.31678 35.5498 7.32111 34.9793C6.50115 34.5289 5.32977 33.418 7.29183 33.388C9.13675 33.358 10.4545 35.1294 10.8938 35.8501C13.0023 39.4831 16.37 38.4622 17.7171 37.8317C17.9221 36.2704 18.5371 35.2195 19.2106 34.619C13.998 34.0185 8.55106 31.9468 8.55106 22.7591C8.55106 20.1469 9.45888 17.9851 10.9524 16.3037C10.7181 15.7032 9.89814 13.2411 11.1867 9.93833C11.1867 9.93833 13.1487 9.3078 17.6292 12.4004C19.5034 11.8599 21.4948 11.5897 23.4861 11.5897C25.4775 11.5897 27.4688 11.8599 29.343 12.4004C33.8235 9.27778 35.7856 9.93833 35.7856 9.93833C37.0741 13.2411 36.2542 15.7032 36.0199 16.3037C37.5134 17.9851 38.4212 20.1169 38.4212 22.7591C38.4212 31.9768 32.945 34.0185 27.7324 34.619C28.5816 35.3697 29.3137 36.8109 29.3137 39.0627C29.3137 42.2754 29.2845 44.8576 29.2845 45.6683C29.2845 46.2988 29.7237 47.0494 30.8951 46.8092C35.5458 45.1993 39.5871 42.1347 42.4501 38.0466C45.3131 33.9586 46.8537 29.0529 46.8551 24.0201C46.8551 10.749 36.3713 0 23.4276 0Z" fill="black"/>
</svg>
