<svg width="47" height="47" viewBox="0 0 47 47" fill="none" xmlns="http://www.w3.org/2000/svg">
<path d="M46.5423 18.8971H44.6494V18.7996H23.4997V28.1994H36.7806C34.843 33.6713 29.6367 37.5993 23.4997 37.5993C15.7131 37.5993 9.39988 31.2861 9.39988 23.4995C9.39988 15.713 15.7131 9.39981 23.4997 9.39981C27.094 9.39981 30.364 10.7557 32.8538 12.9706L39.5007 6.32372C35.3036 2.41223 29.6895 0 23.4997 0C10.522 0 0 10.5219 0 23.4995C0 36.4771 10.522 46.9991 23.4997 46.9991C36.4774 46.9991 46.9994 36.4771 46.9994 23.4995C46.9994 21.9239 46.8373 20.3858 46.5423 18.8971Z" fill="#FFC107"/>
<path d="M2.70801 12.5618L10.4289 18.224C12.518 13.0517 17.5776 9.39989 23.4984 9.39989C27.0927 9.39989 30.3627 10.7558 32.8525 12.9707L39.4994 6.32377C35.3024 2.41225 29.6882 0 23.4984 0C14.4721 0 6.64424 5.09591 2.70801 12.5618Z" fill="#FF3D00"/>
<path d="M23.5003 47C29.5703 47 35.0857 44.6771 39.2558 40.8995L31.9825 34.7449C29.5439 36.5995 26.564 37.6025 23.5003 37.6001C17.3879 37.6001 12.198 33.7027 10.2428 28.2637L2.57947 34.168C6.4687 41.7784 14.367 47 23.5003 47Z" fill="#4CAF50"/>
<path d="M46.543 18.8972H44.65V18.7997H23.4998V28.1997H36.781C35.8541 30.804 34.1846 33.0797 31.9787 34.7457L31.9822 34.7433L39.2555 40.898C38.7409 41.3657 47.0001 35.2498 47.0001 23.4997C47.0001 21.924 46.8379 20.3859 46.543 18.8972Z" fill="#1976D2"/>
</svg>
