<svg width="28" height="28" viewBox="0 0 28 28" fill="none" xmlns="http://www.w3.org/2000/svg">
<path d="M12.4375 0.75C14.6319 0.749853 16.7821 1.36752 18.6419 2.53232C20.5017 3.69711 21.996 5.36198 22.9538 7.33638C23.9116 9.31078 24.2942 11.5149 24.0577 13.6966C23.8213 15.8783 22.9755 17.9494 21.617 19.6728L26.6385 24.6943C26.8889 24.9536 27.0275 25.3009 27.0244 25.6614C27.0213 26.0219 26.8767 26.3668 26.6217 26.6217C26.3668 26.8767 26.0219 27.0213 25.6614 27.0244C25.3009 27.0276 24.9536 26.889 24.6942 26.6385L19.6727 21.617C18.209 22.7706 16.4906 23.5574 14.6609 23.9118C12.8312 24.2661 10.9433 24.1778 9.15469 23.6542C7.36608 23.1306 5.72862 22.1868 4.37893 20.9016C3.02925 19.6164 2.00647 18.0271 1.39593 16.2663C0.785388 14.5055 0.604792 12.6241 0.869206 10.7793C1.13362 8.93448 1.83538 7.17962 2.91593 5.66116C3.99648 4.1427 5.4245 2.90466 7.08084 2.05033C8.73717 1.196 10.5738 0.750159 12.4375 0.75ZM12.4375 3.5C10.0671 3.5 7.79382 4.44163 6.11772 6.11773C4.44161 7.79384 3.49998 10.0671 3.49998 12.4375C3.49998 14.8079 4.44161 17.0812 6.11772 18.7573C7.79382 20.4334 10.0671 21.375 12.4375 21.375C14.8079 21.375 17.0811 20.4334 18.7572 18.7573C20.4334 17.0812 21.375 14.8079 21.375 12.4375C21.375 10.0671 20.4334 7.79384 18.7572 6.11773C17.0811 4.44163 14.8079 3.5 12.4375 3.5ZM12.4375 4.875C14.4432 4.875 16.3667 5.67176 17.785 7.09C19.2032 8.50825 20 10.4318 20 12.4375C20 14.4432 19.2032 16.3668 17.785 17.785C16.3667 19.2032 14.4432 20 12.4375 20C10.4318 20 8.50823 19.2032 7.08999 17.785C5.67174 16.3668 4.87498 14.4432 4.87498 12.4375C4.87498 10.4318 5.67174 8.50825 7.08999 7.09C8.50823 5.67176 10.4318 4.875 12.4375 4.875Z" fill="black"/>
</svg>
